<svg width="44" height="44" viewBox="0 0 44 44" fill="none" xmlns="http://www.w3.org/2000/svg">
<path d="M16.4189 7.29736H10.0337C9.79183 7.29736 9.55981 7.39347 9.38875 7.56453C9.21769 7.73559 9.12158 7.96761 9.12158 8.20953V39.2232C9.12158 39.4651 9.21769 39.6971 9.38875 39.8682C9.55981 40.0392 9.79183 40.1353 10.0337 40.1353H35.5744C35.8163 40.1353 36.0483 40.0392 36.2194 39.8682C36.3905 39.6971 36.4866 39.4651 36.4866 39.2232V8.20953C36.4866 7.96761 36.3905 7.73559 36.2194 7.56453C36.0483 7.39347 35.8163 7.29736 35.5744 7.29736H29.1892" stroke="white" stroke-width="2"/>
<path d="M16.4189 11.8582V7.29734H20.022C20.0341 7.29734 20.0457 7.29254 20.0543 7.28398C20.0628 7.27543 20.0676 7.26383 20.0676 7.25173V5.47301C20.0676 5.11365 20.1384 4.7578 20.2759 4.4258C20.4134 4.09379 20.615 3.79212 20.8691 3.53801C21.1232 3.28391 21.4249 3.08234 21.7569 2.94481C22.0889 2.80729 22.4447 2.73651 22.8041 2.73651C23.1635 2.73651 23.5193 2.80729 23.8513 2.94481C24.1833 3.08234 24.485 3.28391 24.7391 3.53801C24.9932 3.79212 25.1948 4.09379 25.3323 4.4258C25.4698 4.7578 25.5406 5.11365 25.5406 5.47301V7.25173C25.5406 7.27727 25.5607 7.29734 25.5862 7.29734H29.1893V11.8582C29.1893 12.1001 29.0932 12.3321 28.9221 12.5032C28.751 12.6742 28.519 12.7703 28.2771 12.7703H17.3311C17.0892 12.7703 16.8572 12.6742 16.6861 12.5032C16.515 12.3321 16.4189 12.1001 16.4189 11.8582Z" stroke="white" stroke-width="2"/>
</svg>
