<svg width="40" height="40" viewBox="0 0 40 40" fill="none" xmlns="http://www.w3.org/2000/svg">
<g clip-path="url(#clip0_33_6180)">
<path d="M14.8553 28.4726C14.8553 27.6215 14.6941 26.822 14.3717 26.0741C14.0493 25.3262 13.6044 24.675 13.0371 24.1205C12.4697 23.566 11.812 23.1211 11.0641 22.7858C10.3162 22.4506 9.51666 22.2829 8.66558 22.2829C7.8145 22.2829 7.01499 22.4441 6.26707 22.7665C5.51915 23.0889 4.86149 23.5338 4.2941 24.1011C3.72671 24.6685 3.28183 25.3262 2.95945 26.0741C2.63707 26.822 2.47588 27.6215 2.47588 28.4726V29.7106H0V28.4726C0 27.6602 0.103162 26.8801 0.309485 26.1321C0.515808 25.3842 0.825293 24.675 1.23794 24.0044C1.65059 23.3339 2.1406 22.7278 2.70799 22.1862C3.27538 21.6446 3.92014 21.1804 4.64227 20.7935C3.94593 20.2003 3.41078 19.4976 3.03682 18.6852C2.66286 17.8728 2.47588 17.0088 2.47588 16.0932C2.47588 15.2421 2.63707 14.4426 2.95945 13.6947C3.28183 12.9468 3.72027 12.2956 4.27476 11.7411C4.82925 11.1866 5.48691 10.7417 6.24773 10.4064C7.00854 10.0712 7.8145 9.90352 8.66558 9.90352C9.51666 9.90352 10.3162 10.0647 11.0641 10.3871C11.812 10.7095 12.4632 11.1544 13.0177 11.7217C13.5722 12.2891 14.0171 12.9468 14.3524 13.6947C14.6876 14.4426 14.8553 15.2421 14.8553 16.0932C14.8553 16.9959 14.6683 17.8534 14.2943 18.6658C13.9204 19.4782 13.3852 20.1874 12.6889 20.7935C13.3981 21.1675 14.0364 21.6253 14.6038 22.1669C15.1712 22.7085 15.6612 23.3145 16.0739 23.9851C16.4865 24.6556 16.796 25.3649 17.0023 26.1128C17.2087 26.8607 17.3183 27.6473 17.3312 28.4726V29.7106H14.8553V28.4726ZM4.95176 16.0932C4.95176 16.609 5.04847 17.0926 5.2419 17.5439C5.43533 17.9953 5.69968 18.3886 6.03496 18.7238C6.37023 19.0591 6.76354 19.3235 7.21487 19.5169C7.6662 19.7103 8.14977 19.807 8.66558 19.807C9.18139 19.807 9.66496 19.7103 10.1163 19.5169C10.5676 19.3235 10.9609 19.0591 11.2962 18.7238C11.6315 18.3886 11.8958 17.9953 12.0893 17.5439C12.2827 17.0926 12.3794 16.609 12.3794 16.0932C12.3794 15.5774 12.2827 15.0938 12.0893 14.6425C11.8958 14.1912 11.6315 13.7979 11.2962 13.4626C10.9609 13.1273 10.5676 12.863 10.1163 12.6695C9.66496 12.4761 9.18139 12.3794 8.66558 12.3794C8.14977 12.3794 7.6662 12.4761 7.21487 12.6695C6.76354 12.863 6.37023 13.1273 6.03496 13.4626C5.69968 13.7979 5.43533 14.1912 5.2419 14.6425C5.04847 15.0938 4.95176 15.5774 4.95176 16.0932ZM34.9718 20.7935C35.681 21.1675 36.3194 21.6253 36.8867 22.1669C37.4541 22.7085 37.9441 23.3145 38.3568 23.9851C38.7694 24.6556 39.0789 25.3649 39.2852 26.1128C39.4916 26.8607 39.6012 27.6473 39.6141 28.4726V29.7106H37.1382V28.4726C37.1382 27.6215 36.977 26.822 36.6546 26.0741C36.3322 25.3262 35.8874 24.675 35.32 24.1205C34.7526 23.566 34.0949 23.1211 33.347 22.7858C32.5991 22.4506 31.7996 22.2829 30.9485 22.2829C30.0974 22.2829 29.2979 22.4441 28.55 22.7665C27.8021 23.0889 27.1444 23.5338 26.577 24.1011C26.0096 24.6685 25.5647 25.3262 25.2424 26.0741C24.92 26.822 24.7588 27.6215 24.7588 28.4726V29.7106H22.2829V28.4726C22.2829 27.6602 22.3861 26.8801 22.5924 26.1321C22.7987 25.3842 23.1082 24.675 23.5209 24.0044C23.9335 23.3339 24.4235 22.7278 24.9909 22.1862C25.5583 21.6446 26.2031 21.1804 26.9252 20.7935C26.2288 20.2003 25.6937 19.4976 25.3197 18.6852C24.9458 17.8728 24.7588 17.0088 24.7588 16.0932C24.7588 15.2421 24.92 14.4426 25.2424 13.6947C25.5647 12.9468 26.0032 12.2956 26.5577 11.7411C27.1122 11.1866 27.7698 10.7417 28.5306 10.4064C29.2915 10.0712 30.0974 9.90352 30.9485 9.90352C31.7996 9.90352 32.5991 10.0647 33.347 10.3871C34.0949 10.7095 34.7461 11.1544 35.3006 11.7217C35.8551 12.2891 36.3 12.9468 36.6353 13.6947C36.9706 14.4426 37.1382 15.2421 37.1382 16.0932C37.1382 16.9959 36.9512 17.8534 36.5773 18.6658C36.2033 19.4782 35.6681 20.1874 34.9718 20.7935ZM27.2347 16.0932C27.2347 16.609 27.3314 17.0926 27.5248 17.5439C27.7182 17.9953 27.9826 18.3886 28.3179 18.7238C28.6531 19.0591 29.0465 19.3235 29.4978 19.5169C29.9491 19.7103 30.4327 19.807 30.9485 19.807C31.4643 19.807 31.9479 19.7103 32.3992 19.5169C32.8505 19.3235 33.2438 19.0591 33.5791 18.7238C33.9144 18.3886 34.1787 17.9953 34.3722 17.5439C34.5656 17.0926 34.6623 16.609 34.6623 16.0932C34.6623 15.5774 34.5656 15.0938 34.3722 14.6425C34.1787 14.1912 33.9144 13.7979 33.5791 13.4626C33.2438 13.1273 32.8505 12.863 32.3992 12.6695C31.9479 12.4761 31.4643 12.3794 30.9485 12.3794C30.4327 12.3794 29.9491 12.4761 29.4978 12.6695C29.0465 12.863 28.6531 13.1273 28.3179 13.4626C27.9826 13.7979 27.7182 14.1912 27.5248 14.6425C27.3314 15.0938 27.2347 15.5774 27.2347 16.0932ZM22.2829 2.47588C21.2384 2.47588 20.2132 2.58549 19.2074 2.80471C18.2016 3.02393 17.228 3.33986 16.2866 3.75251C15.3453 4.16515 14.4555 4.66806 13.6173 5.26124C12.7792 5.85442 12.0054 6.54432 11.2962 7.33092L9.45863 5.66744C10.2839 4.76478 11.1866 3.96528 12.1666 3.26893C13.1467 2.57259 14.1783 1.97941 15.2615 1.4894C16.3447 0.999379 17.4795 0.631865 18.6658 0.386856C19.8522 0.141847 21.0579 0.0128952 22.2829 0C24.0496 0 25.7775 0.257904 27.4668 0.773712C29.1561 1.28952 30.7293 2.06968 32.1864 3.11419V0H34.6623V7.42764H27.2347V4.95176H30.5036C29.2786 4.13936 27.9697 3.52684 26.577 3.11419C25.1843 2.70155 23.753 2.48877 22.2829 2.47588ZM17.3312 37.1382C18.3757 37.1382 19.4008 37.0286 20.4067 36.8094C21.4125 36.5901 22.3861 36.2742 23.3274 35.8616C24.2688 35.4489 25.1585 34.946 25.9967 34.3528C26.8349 33.7597 27.6086 33.0698 28.3179 32.2831L30.1554 33.9466C29.3301 34.8493 28.4275 35.6488 27.4474 36.3451C26.4674 37.0415 25.4293 37.6347 24.3333 38.1247C23.2372 38.6147 22.1024 38.9822 20.9289 39.2272C19.7555 39.4722 18.5562 39.6012 17.3312 39.6141C15.5645 39.6141 13.8366 39.3562 12.1473 38.8404C10.458 38.3246 8.8848 37.5444 7.42764 36.4999V39.6141H4.95176V32.1864H12.3794V34.6623H9.11046C10.3355 35.4747 11.6444 36.0872 13.0371 36.4999C14.4297 36.9125 15.8611 37.1253 17.3312 37.1382Z" fill="#E6E6E6"/>
</g>
<defs>
<clipPath id="clip0_33_6180">
<rect width="39.6141" height="39.6141" fill="white"/>
</clipPath>
</defs>
</svg>
