<svg width="44" height="37" viewBox="0 0 44 37" fill="none" xmlns="http://www.w3.org/2000/svg">
<path d="M16.2731 27.3684C11.725 27.3684 7.87619 26.0435 4.72672 23.3937C1.57724 20.7439 0.00167036 17.5074 1.32463e-06 13.6842C-0.00166771 9.86105 1.5739 6.62456 4.72672 3.97474C7.87953 1.32491 11.7283 0 16.2731 0C20.8179 0 24.6675 1.32491 27.822 3.97474C30.9765 6.62456 32.5512 9.86105 32.5462 13.6842C32.5462 15.2281 32.2542 16.6842 31.67 18.0526C31.0858 19.4211 30.293 20.6316 29.2916 21.6842L43.3115 33.4737C43.7705 33.8596 44 34.3509 44 34.9474C44 35.5439 43.7705 36.0351 43.3115 36.421C42.8525 36.807 42.2684 37 41.559 37C40.8497 37 40.2655 36.807 39.8065 36.421L25.7866 24.6316C24.5349 25.4737 23.0953 26.1403 21.468 26.6316C19.8407 27.1228 18.1091 27.3684 16.2731 27.3684ZM16.2731 23.1579C19.4026 23.1579 22.063 22.2372 24.2545 20.3958C26.4459 18.5544 27.5408 16.3172 27.5391 13.6842C27.5375 11.0512 26.4426 8.81474 24.2545 6.97474C22.0663 5.13474 19.4059 4.21333 16.2731 4.21053C13.1403 4.20772 10.4807 5.12912 8.29428 6.97474C6.10784 8.82035 5.01212 11.0568 5.00711 13.6842C5.00211 16.3116 6.09783 18.5488 8.29428 20.3958C10.4907 22.2428 13.1503 23.1635 16.2731 23.1579Z" fill="#0B82AD"/>
</svg>
