<svg width="43" height="43" viewBox="0 0 43 43" fill="none" xmlns="http://www.w3.org/2000/svg">
<path d="M23.088 18.3891C24.161 16.8898 24.738 15.0924 24.738 13.2486C24.738 11.4049 24.161 9.60745 23.088 8.10817C24.0927 7.42371 25.2816 7.06029 26.4973 7.06594C28.137 7.06594 29.7096 7.71734 30.8691 8.87682C32.0286 10.0363 32.68 11.6089 32.68 13.2486C32.68 14.8884 32.0286 16.461 30.8691 17.6205C29.7096 18.78 28.137 19.4314 26.4973 19.4314C25.2816 19.437 24.0927 19.0736 23.088 18.3891ZM9.71566 13.2486C9.71566 12.0258 10.0783 10.8305 10.7576 9.81372C11.437 8.79698 12.4026 8.00453 13.5323 7.53658C14.6621 7.06862 15.9052 6.94618 17.1046 7.18474C18.3039 7.4233 19.4055 8.01215 20.2702 8.87682C21.1349 9.74148 21.7237 10.8431 21.9623 12.0425C22.2008 13.2418 22.0784 14.4849 21.6104 15.6147C21.1425 16.7444 20.35 17.71 19.3333 18.3894C18.3166 19.0687 17.1212 19.4314 15.8984 19.4314C14.2586 19.4314 12.686 18.78 11.5265 17.6205C10.3671 16.461 9.71566 14.8884 9.71566 13.2486ZM13.2486 13.2486C13.2486 13.7727 13.404 14.285 13.6952 14.7208C13.9864 15.1565 14.4002 15.4961 14.8844 15.6967C15.3685 15.8972 15.9013 15.9497 16.4153 15.8475C16.9293 15.7452 17.4014 15.4929 17.772 15.1223C18.1426 14.7517 18.3949 14.2796 18.4972 13.7656C18.5994 13.2516 18.5469 12.7188 18.3464 12.2346C18.1458 11.7505 17.8062 11.3366 17.3705 11.0455C16.9347 10.7543 16.4224 10.5989 15.8984 10.5989C15.1956 10.5989 14.5216 10.8781 14.0247 11.375C13.5278 11.8719 13.2486 12.5459 13.2486 13.2486ZM28.2638 30.0303V33.5632H3.53296V30.0303C3.53296 30.0303 3.53296 22.9643 15.8984 22.9643C28.2638 22.9643 28.2638 30.0303 28.2638 30.0303ZM24.7308 30.0303C24.4835 28.6524 22.3814 26.4973 15.8984 26.4973C9.41536 26.4973 7.18959 28.8114 7.06593 30.0303M28.1754 22.9643C29.2581 23.8065 30.1434 24.8754 30.769 26.0961C31.3946 27.3168 31.7454 28.6596 31.7967 30.0303V33.5632H38.8627V30.0303C38.8627 30.0303 38.8627 23.6179 28.1578 22.9643H28.1754Z" fill="#E6E6E6"/>
</svg>
