<svg width="52" height="52" viewBox="0 0 52 52" fill="none" xmlns="http://www.w3.org/2000/svg">
<path fill-rule="evenodd" clip-rule="evenodd" d="M28.4361 11.633H12.9255C11.2115 11.633 9.56767 12.3139 8.35567 13.5259C7.14366 14.7379 6.46277 16.3817 6.46277 18.0957V31.0212C6.46277 32.7353 7.14366 34.3791 8.35567 35.5911C9.56767 36.8031 11.2115 37.484 12.9255 37.484H28.4361C30.1502 37.484 31.794 36.8031 33.006 35.5911C34.218 34.3791 34.8989 32.7353 34.8989 31.0212V18.0957C34.8989 16.3817 34.218 14.7379 33.006 13.5259C31.794 12.3139 30.1502 11.633 28.4361 11.633ZM9.04787 18.0957C9.04787 17.0673 9.45641 16.081 10.1836 15.3538C10.9108 14.6266 11.8971 14.2181 12.9255 14.2181H28.4361C29.4646 14.2181 30.4509 14.6266 31.1781 15.3538C31.9053 16.081 32.3138 17.0673 32.3138 18.0957V31.0212C32.3138 32.0496 31.9053 33.0359 31.1781 33.7631C30.4509 34.4903 29.4646 34.8989 28.4361 34.8989H12.9255C11.8971 34.8989 10.9108 34.4903 10.1836 33.7631C9.45641 33.0359 9.04787 32.0496 9.04787 31.0212V18.0957Z" fill="#0B82AD"/>
<path fill-rule="evenodd" clip-rule="evenodd" d="M40.6584 14.4249L32.96 19.4322C32.7811 19.5482 32.6337 19.7066 32.5308 19.8933C32.428 20.08 32.3729 20.2893 32.3706 20.5024L32.3008 27.2547C32.2981 27.4725 32.3505 27.6873 32.4531 27.8794C32.5557 28.0715 32.7051 28.2345 32.8876 28.3534L40.6532 33.3995C40.8483 33.5266 41.0741 33.5987 41.3067 33.6081C41.5393 33.6175 41.7702 33.5639 41.9749 33.453C42.1796 33.342 42.3505 33.1779 42.4696 32.9778C42.5887 32.7777 42.6516 32.5492 42.6515 32.3164V15.5106C42.652 15.2776 42.5895 15.0487 42.4706 14.8483C42.3517 14.6478 42.1808 14.4833 41.976 14.372C41.7713 14.2608 41.5402 14.2069 41.3074 14.2162C41.0745 14.2255 40.8485 14.2976 40.6532 14.4249M40.069 29.9355L34.8962 26.5723L34.9505 21.2211L40.069 17.8941V29.9355Z" fill="#0B82AD"/>
</svg>
