<svg width="32" height="32" viewBox="0 0 32 32" fill="none" xmlns="http://www.w3.org/2000/svg">
<path d="M20.636 17.1869L22.656 28.5549C22.6786 28.6888 22.6598 28.8263 22.6021 28.9492C22.5445 29.0721 22.4506 29.1745 22.3332 29.2426C22.2158 29.3108 22.0804 29.3414 21.945 29.3305C21.8097 29.3196 21.681 29.2676 21.576 29.1816L16.8026 25.5989C16.5722 25.4267 16.2923 25.3337 16.0046 25.3337C15.717 25.3337 15.4371 25.4267 15.2066 25.5989L10.4253 29.1802C10.3204 29.2661 10.1918 29.318 10.0566 29.3289C9.92148 29.3399 9.7862 29.3093 9.66886 29.2414C9.55151 29.1734 9.45767 29.0713 9.39987 28.9487C9.34206 28.826 9.32302 28.6886 9.34531 28.5549L11.364 17.1869" stroke="#EFEFEF" stroke-width="2.66667" stroke-linecap="round" stroke-linejoin="round"/>
<path d="M16 18.6666C20.4183 18.6666 24 15.0849 24 10.6666C24 6.24835 20.4183 2.66663 16 2.66663C11.5817 2.66663 8 6.24835 8 10.6666C8 15.0849 11.5817 18.6666 16 18.6666Z" stroke="#EFEFEF" stroke-width="2.66667" stroke-linecap="round" stroke-linejoin="round"/>
</svg>
