<svg width="32" height="32" viewBox="0 0 32 32" fill="none" xmlns="http://www.w3.org/2000/svg">
<path d="M21.3333 28V25.3333C21.3333 23.9188 20.7714 22.5623 19.7712 21.5621C18.771 20.5619 17.4144 20 16 20H7.99996C6.58547 20 5.22892 20.5619 4.22872 21.5621C3.22853 22.5623 2.66663 23.9188 2.66663 25.3333V28" stroke="#EFEFEF" stroke-width="2.66667" stroke-linecap="round" stroke-linejoin="round"/>
<path d="M12 14.6667C14.9455 14.6667 17.3333 12.2789 17.3333 9.33333C17.3333 6.38781 14.9455 4 12 4C9.05444 4 6.66663 6.38781 6.66663 9.33333C6.66663 12.2789 9.05444 14.6667 12 14.6667Z" stroke="#EFEFEF" stroke-width="2.66667" stroke-linecap="round" stroke-linejoin="round"/>
<path d="M29.3334 27.9999V25.3332C29.3325 24.1515 28.9392 23.0036 28.2152 22.0696C27.4912 21.1357 26.4775 20.4686 25.3334 20.1732" stroke="#EFEFEF" stroke-width="2.66667" stroke-linecap="round" stroke-linejoin="round"/>
<path d="M21.3334 4.17322C22.4806 4.46695 23.4974 5.13415 24.2236 6.06963C24.9497 7.00511 25.3438 8.15566 25.3438 9.33988C25.3438 10.5241 24.9497 11.6747 24.2236 12.6101C23.4974 13.5456 22.4806 14.2128 21.3334 14.5066" stroke="#EFEFEF" stroke-width="2.66667" stroke-linecap="round" stroke-linejoin="round"/>
</svg>
